<?xml version="1.0" standalone="no"?>
<!DOCTYPE svg PUBLIC "-//W3C//DTD SVG 20010904//EN"
 "http://www.w3.org/TR/2001/REC-SVG-20010904/DTD/svg10.dtd">
<svg version="1.0" xmlns="http://www.w3.org/2000/svg"
 width="675.000000pt" height="675.000000pt" viewBox="0 0 675.000000 675.000000"
 preserveAspectRatio="xMidYMid meet">

<g transform="translate(0.000000,675.000000) scale(0.100000,-0.100000)"
fill="#000000" stroke="none">
<path d="M4009 6683 c-66 -64 -101 -119 -148 -235 -8 -23 -17 -28 -43 -28 -82
0 -276 -64 -385 -126 -289 -166 -699 -532 -850 -759 -26 -38 -71 -97 -101
-130 -199 -221 -403 -556 -481 -790 -51 -153 -62 -226 -68 -433 -6 -201 3
-323 38 -527 10 -60 19 -135 20 -165 0 -30 3 -48 6 -40 4 8 21 -55 39 -139 35
-163 84 -331 139 -471 18 -47 42 -110 54 -140 l21 -55 -32 40 c-47 59 -123
130 -173 162 -40 25 -49 38 -84 123 -51 124 -122 344 -160 495 -83 333 -125
744 -102 1015 25 286 64 462 168 739 56 150 67 188 71 259 6 99 -7 150 -54
214 -52 72 -103 102 -184 106 l-67 4 -6 127 c-9 200 -42 324 -103 385 -37 37
-99 66 -144 66 -36 0 -132 -39 -144 -59 -10 -15 -26 -14 -26 2 0 22 -56 131
-85 165 -54 64 -144 93 -222 71 -45 -12 -135 -85 -144 -117 -3 -10 -15 -8 -49
7 -151 69 -290 -40 -324 -251 -10 -63 -13 -69 -31 -63 -104 32 -166 25 -230
-27 -108 -90 -102 -214 27 -537 118 -297 136 -358 141 -471 6 -123 38 -244 96
-360 35 -71 38 -84 45 -195 29 -511 125 -1388 201 -1834 31 -180 167 -761 196
-838 27 -71 29 -133 18 -418 -9 -226 -9 -325 0 -450 14 -176 61 -414 110 -556
65 -186 121 -337 145 -391 l26 -58 2709 0 2710 0 -34 128 c-69 259 -170 453
-318 608 -62 66 -67 74 -45 74 57 0 183 114 263 240 45 71 77 144 99 230 8 30
19 54 25 53 6 -2 11 5 11 15 0 9 31 58 69 109 93 125 116 192 115 333 -1 75
-7 122 -21 165 l-19 60 23 40 c22 39 23 46 23 335 0 267 -2 301 -20 355 -11
33 -18 49 -15 35 3 -14 8 -47 11 -75 5 -47 3 -53 -41 -110 -74 -97 -153 -172
-254 -240 -53 -35 -97 -62 -99 -60 -14 13 92 296 177 475 54 113 103 218 110
233 6 15 15 26 19 23 5 -3 21 -53 37 -111 15 -58 30 -104 32 -101 2 2 -7 47
-20 99 -27 105 -21 112 36 39 l27 -35 0 1477 0 1476 -24 60 c-57 139 -184 320
-327 465 -66 67 -98 108 -123 160 -18 39 -54 98 -80 133 l-46 62 -1031 0
-1031 0 -69 -67z m-2965 -295 c50 -77 107 -434 98 -612 -3 -71 -2 -88 9 -84 9
3 19 34 26 82 30 195 62 291 133 400 72 111 100 117 132 29 17 -49 14 -231 -6
-376 -15 -113 -7 -287 15 -328 8 -15 1 -33 -31 -86 -37 -62 -50 -103 -32 -103
4 0 23 28 42 62 19 34 64 95 100 136 79 91 141 127 217 126 104 -1 110 -50 26
-198 l-58 -101 -5 -125 c-4 -98 -10 -138 -29 -187 -27 -71 -96 -157 -175 -217
-52 -40 -239 -136 -265 -136 -8 0 -12 -3 -9 -6 18 -17 231 63 292 110 l31 23
-5 -226 c-8 -405 -5 -781 9 -891 31 -255 116 -646 171 -789 35 -90 100 -186
214 -317 42 -47 92 -113 112 -145 l36 -59 -17 -83 c-17 -86 -64 -217 -110
-308 -15 -29 -107 -187 -205 -349 -97 -162 -205 -344 -240 -403 l-64 -108 -32
151 c-55 254 -95 352 -256 620 -86 144 -229 408 -265 489 -58 131 -107 299
-123 421 -5 36 -13 85 -18 110 -16 70 -30 244 -52 630 -11 195 -25 409 -30
475 -5 66 -12 208 -15 315 -7 209 -18 277 -66 398 -16 40 -29 75 -29 78 0 3
16 -4 36 -16 51 -32 128 -68 161 -76 20 -4 11 4 -30 30 -152 93 -225 172 -289
313 -24 54 -31 84 -34 154 -7 161 -26 227 -123 424 -125 250 -145 335 -81 335
40 0 145 -66 224 -141 66 -63 87 -90 102 -131 12 -32 25 -53 34 -53 18 0 18
20 0 160 -13 104 -7 268 12 359 12 56 55 156 68 156 40 0 91 -75 119 -179 11
-41 28 -135 36 -210 17 -147 32 -220 48 -236 6 -7 7 40 3 136 -7 145 -7 148
29 293 20 80 43 162 51 183 41 100 78 127 108 81z m3303 -1552 c25 -50 78
-142 116 -206 38 -63 93 -167 121 -231 91 -201 276 -506 435 -713 88 -116 244
-276 350 -361 l73 -59 -41 -14 c-40 -13 -42 -13 -94 21 -28 19 -77 43 -107 53
-30 10 -57 20 -58 21 -2 1 1 17 7 36 11 33 6 87 -8 87 -3 0 -25 -24 -48 -54
l-42 -53 -128 -5 c-209 -9 -394 -68 -401 -130 -3 -26 19 -81 37 -92 5 -4 49 7
98 23 295 99 509 75 677 -77 40 -36 79 -63 99 -67 17 -4 51 -13 75 -21 70 -23
172 9 201 64 8 16 2 17 -65 14 l-75 -4 22 38 c13 22 24 41 25 43 2 2 19 -7 38
-19 20 -12 36 -20 36 -17 0 2 -43 33 -96 67 -84 56 -95 66 -89 87 6 25 2 28
-25 13 -25 -13 -124 63 -265 205 -165 164 -288 329 -453 606 -76 128 -195 356
-175 334 5 -5 33 -41 63 -80 208 -272 408 -421 812 -606 245 -113 329 -141
434 -147 l92 -5 11 -86 c6 -47 16 -164 23 -258 12 -184 9 -230 -43 -558 -31
-200 -49 -353 -49 -419 0 -89 -9 -129 -28 -121 -9 3 -46 -23 -99 -72 -153
-140 -244 -207 -463 -345 -231 -145 -539 -265 -910 -357 -228 -56 -344 -74
-406 -62 -55 11 -262 92 -310 121 -17 11 -34 17 -37 14 -12 -12 -53 11 -102
57 -31 29 -115 84 -206 135 -85 48 -208 123 -274 167 -108 72 -149 103 -287
215 -111 90 -270 296 -347 451 -47 94 -66 153 -80 256 -5 44 -16 119 -22 168
-10 69 -10 114 1 216 16 159 9 301 -21 396 l-21 69 20 41 c42 85 121 183 189
234 85 64 188 107 417 176 207 62 407 130 515 174 41 17 80 31 87 31 8 0 14 4
14 10 0 5 6 7 14 4 8 -3 61 13 118 35 288 113 475 307 525 546 9 44 26 93 36
109 19 27 21 28 34 11 7 -10 34 -59 60 -109z m-161 -69 c-14 -45 -44 -110 -66
-144 -54 -82 -179 -197 -276 -255 -71 -41 -240 -118 -261 -118 -4 0 21 18 57
39 132 80 281 227 483 477 45 55 84 97 86 92 1 -5 -9 -46 -23 -91z m1840
-1228 c10 -34 17 -112 19 -209 4 -165 1 -150 -25 110 -6 63 -14 126 -17 140
-11 46 8 13 23 -41z m-457 -355 l34 -23 -47 -21 c-62 -26 -64 -26 -103 12
l-33 31 30 19 c17 10 30 23 30 29 0 11 12 5 89 -47z m-188 -1785 c59 -109 192
-246 327 -334 76 -50 45 -38 -95 36 -352 186 -339 182 -437 123 l-59 -35 -24
22 c-34 33 -72 117 -75 168 l-3 44 55 19 c30 10 100 42 155 71 l100 53 13 -54
c6 -30 26 -81 43 -113z m-450 62 c-6 -10 -15 -38 -20 -61 -19 -84 28 -232 90
-284 l30 -25 -120 -61 c-267 -133 -546 -239 -738 -279 -78 -17 -376 -54 -379
-48 0 1 -13 40 -28 87 -25 78 -120 590 -110 599 2 2 77 -22 166 -53 229 -80
224 -79 287 -71 171 20 582 123 751 188 80 31 83 32 71 8z m1094 -562 l40 -40
-59 35 c-73 44 -75 46 -45 46 16 0 39 -15 64 -41z"/>
<path d="M837 5616 c-46 -13 -87 -40 -76 -50 3 -3 23 1 44 9 22 8 60 14 84 15
52 0 169 -19 194 -32 9 -5 17 -6 17 -3 0 13 -128 65 -170 70 -25 2 -67 -1 -93
-9z"/>
<path d="M3030 3957 c0 -10 7 -34 15 -54 16 -39 9 -53 -26 -53 -8 0 -47 -11
-85 -24 -68 -23 -70 -23 -120 -6 -28 10 -62 23 -74 30 -26 14 -23 7 18 -47
l24 -32 -39 -16 c-59 -25 -112 -34 -190 -35 -40 0 -73 -4 -73 -9 0 -19 43 -61
83 -80 60 -29 100 -26 214 15 54 19 110 38 125 41 71 14 142 -29 154 -92 9
-52 -25 -118 -77 -148 -78 -44 -134 -42 -170 5 -16 20 -16 20 -23 -24 -4 -25
-4 -63 0 -85 l6 -40 36 19 c76 38 142 8 142 -66 0 -61 -46 -105 -109 -106 -41
0 -43 -1 -37 -24 24 -94 86 -178 155 -209 43 -19 153 -44 238 -54 83 -10 250
60 302 126 56 71 92 150 110 237 10 48 21 82 25 76 4 -7 14 -12 23 -12 13 0
15 9 10 52 -6 45 -3 55 15 75 21 23 21 23 4 85 -39 142 -123 249 -238 305 -78
38 -122 50 -218 59 -79 7 -139 32 -192 82 -23 21 -28 23 -28 9z m185 -288 c5
-7 11 -6 21 2 11 9 21 9 39 1 37 -17 34 -70 -5 -112 -16 -18 -27 -36 -24 -42
11 -17 -50 19 -73 44 -20 22 -43 68 -43 89 0 5 9 18 20 29 16 16 25 18 40 10
10 -5 22 -15 25 -21z m228 -153 c23 -13 27 -13 27 0 0 8 9 14 20 14 16 0 20
-7 20 -32 0 -18 7 -46 15 -62 20 -37 19 -55 -2 -63 -22 -8 -40 -30 -54 -63 -9
-22 -12 -23 -22 -9 -7 9 -21 18 -31 20 -59 12 -86 150 -37 190 28 23 29 23 64
5z m67 -282 c0 -8 -7 -14 -15 -14 -17 0 -18 2 -9 24 7 18 24 12 24 -10z m-49
-45 c13 -25 5 -76 -18 -104 l-16 -20 9 20 c12 31 11 98 -3 102 -7 3 -18 -7
-25 -21 l-11 -26 -24 22 c-49 46 -40 -11 10 -70 28 -32 29 -35 7 -21 -46 30
-78 91 -61 118 8 12 13 12 33 -1 23 -15 25 -15 36 3 16 25 49 24 63 -2z m-188
-24 c10 -14 13 -25 7 -25 -6 0 -17 -15 -25 -32 l-13 -33 -7 28 c-4 15 -14 31
-23 36 -14 8 -13 12 8 30 31 26 31 26 53 -4z m-164 -14 c24 -16 17 -69 -18
-120 -22 -33 -113 63 -98 103 7 18 42 22 52 6 4 -6 12 -4 21 5 18 17 24 18 43
6z m202 -154 c-1 -12 -15 -9 -19 4 -3 6 1 10 8 8 6 -3 11 -8 11 -12z"/>
<path d="M3240 3649 c-11 -20 -13 -20 -30 -4 -22 20 -50 14 -50 -11 0 -23 29
-68 53 -84 19 -11 24 -9 49 19 30 33 36 69 16 89 -17 17 -26 15 -38 -9z"/>
<path d="M3010 3119 c0 -19 19 -46 46 -64 32 -20 44 -9 44 43 0 34 -8 40 -28
20 -9 -9 -15 -9 -24 0 -15 15 -38 16 -38 1z"/>
<path d="M3752 2283 c-14 -23 2 -71 35 -106 53 -56 204 -105 287 -93 89 14
194 83 180 119 -9 25 -42 21 -104 -13 -120 -64 -293 -21 -349 88 -14 26 -36
29 -49 5z"/>
</g>
</svg>
